<mxfile host="app.diagrams.net" modified="2023-12-07T18:37:51.409Z" agent="Mozilla/5.0 (Macintosh; Intel Mac OS X 10.15; rv:120.0) Gecko/20100101 Firefox/120.0" version="22.1.7" etag="54-TWrQmjrad5KXQuRHd" type="github">
  <diagram name="Page-1" id="SO1qIXrSSf2dQOlOGDMW">
    <mxGraphModel>
      <root>
        <mxCell id="0" />
        <mxCell id="1" parent="0" />
      </root>
    </mxGraphModel>
  </diagram>
</mxfile>
